<svg width="20" height="18" viewBox="0 0 20 18" fill="none" xmlns="http://www.w3.org/2000/svg">
<path d="M19.6376 2.13755L17.0641 0.107861C16.9844 0.0422364 16.886 -0.00463867 16.7735 -0.00463867C16.661 -0.00463867 16.5579 0.0422363 16.4782 0.112549L7.11726 12.1407C7.11726 12.1407 3.43757 8.60161 3.33445 8.49849C3.23132 8.39536 3.09539 8.22192 2.88914 8.22192C2.68289 8.22192 2.58914 8.36724 2.48132 8.47505C2.40164 8.55942 1.08914 9.93755 0.442261 10.6219C0.404761 10.6641 0.381323 10.6875 0.348511 10.7204C0.292261 10.8 0.254761 10.8891 0.254761 10.9875C0.254761 11.0907 0.292261 11.175 0.348511 11.2547L0.479761 11.3766C0.479761 11.3766 7.00945 17.6485 7.11726 17.7563C7.22507 17.8641 7.35632 18 7.54851 18C7.73601 18 7.8907 17.7985 7.97976 17.7094L19.6563 2.70942C19.7126 2.62974 19.7501 2.54067 19.7501 2.43755C19.7501 2.32036 19.7032 2.22192 19.6376 2.13755Z" fill="#E67E22"/>
</svg>
